<?xml version="1.0" encoding="UTF-8" standalone="no"?>
<!DOCTYPE svg PUBLIC "-//W3C//DTD SVG 1.1//EN" "http://www.w3.org/Graphics/SVG/1.1/DTD/svg11.dtd">
<svg width="100%" height="100%" viewBox="0 0 632 632" version="1.1" xmlns="http://www.w3.org/2000/svg" xmlns:xlink="http://www.w3.org/1999/xlink" xml:space="preserve" xmlns:serif="http://www.serif.com/" style="fill-rule:evenodd;clip-rule:evenodd;stroke-linecap:round;stroke-linejoin:round;stroke-miterlimit:1.5;">
    <g transform="matrix(1,0,0,1,-2598,-3158)">
        <g transform="matrix(1,0,0,1,335,1824)">
            <g transform="matrix(1,0,0,1,-422,-164)">
                <circle cx="3001" cy="1814" r="314" style="fill:white;stroke:rgb(217,26,26);stroke-opacity:0;stroke-width:4px;"/>
            </g>
            <g transform="matrix(1.65415,0,0,1.65415,935.975,222.364)">
                <g transform="matrix(0.742285,0,0,0.723289,252.502,130.409)">
                    <path d="M1000,1170.3C959.9,1170.3 928.9,1149.8 927.6,1148.9L920.3,1144L926.1,1137.5C926.5,1137.1 966.6,1092.2 993,1034.9L999.9,1019.9L1006.8,1034.9C1033.2,1092.2 1073.3,1137 1073.7,1137.5L1079.5,1144L1072.2,1148.9C1071.1,1149.8 1040.1,1170.3 1000,1170.3ZM943.6,1140.6C954.3,1146.2 975.4,1155.1 1000,1155.1C1024.6,1155.1 1045.7,1146.1 1056.4,1140.6C1045.1,1127 1020.4,1095.4 1000,1055.5C979.6,1095.3 954.9,1127 943.6,1140.6Z" style="fill-rule:nonzero;"/>
                    <g>
                        <path d="M1023.7,847.7L1023.7,832.5C1034,832.5 1043.6,826.5 1048.2,817.2L1049.6,814.3C1057.6,820.5 1057.6,832.7 1049.5,838.9C1042.1,844.5 1033.1,847.7 1023.7,847.7Z" style="fill-rule:nonzero;"/>
                    </g>
                    <path d="M1156.4,1179L1143.9,1168.5C1108.1,1138.5 1082.3,1100.5 1061.5,1069.9L1057.9,1064.6C1047.9,1049.9 1037.9,1035.3 1028.9,1022.3C1022.2,1012.6 1011.7,1007 999.9,1007C988.1,1007 977.6,1012.6 970.9,1022.3C961.9,1035.4 952,1049.9 941.9,1064.6L938.3,1069.9C917.5,1100.5 891.7,1138.6 855.9,1168.5L843.4,1179L843.4,962.8C843.4,942.7 852.5,924.3 868.5,912.2C884.1,900.4 904.3,896.3 922.9,901.1L923.9,901.4C928.9,902.8 933.9,904.9 938.6,907.6C938.8,907.7 939.1,907.9 939.5,908.1L940.2,908.5C943,910.2 946.4,910.4 949.4,909C952.4,907.7 954.5,905.1 955.2,901.9L959.3,882.7C960,879.4 959.2,876.1 957.1,873.5C955,870.9 951.9,869.4 948.5,869.4L922.6,869.4L948.8,843.3C955.8,836.3 965.1,832.5 974.9,832.5L1029.6,832.5L1044.5,901.9C1045.2,905.1 1047.3,907.7 1050.3,909C1053.3,910.3 1056.6,910.1 1059.4,908.5L1060.2,908.1C1060.6,907.9 1060.9,907.7 1061.3,907.5C1065.8,904.9 1070.8,902.8 1075.8,901.4L1079.9,916.1C1076.1,917.2 1072.3,918.7 1068.7,920.8C1068.3,921 1068.1,921.1 1068,921.2L1067.2,921.6C1060.1,925.8 1051.8,926.2 1044.2,922.9C1036.7,919.6 1031.4,913.1 1029.7,905.1L1017.4,847.7L975,847.7C969.2,847.7 963.7,850 959.6,854.1L957.8,855.9C962.1,857.5 966,860.3 969,864C974,870.2 975.9,878.2 974.3,886L970.2,905.2C968.5,913.2 963.2,919.7 955.7,923C948.2,926.3 939.8,925.8 932.7,921.7L932,921.3C931.8,921.2 931.6,921.1 931.5,921C927.9,918.9 924.3,917.4 920.7,916.3L920,916.1C905.7,912.1 890,915.2 877.9,924.3C865.8,933.5 858.9,947.5 858.9,962.8L858.9,1145.7C886.8,1119 908.3,1087.4 926,1061.4L929.6,1056.1C939.6,1041.4 949.6,1026.8 958.6,1013.7C968,1000 983.5,991.8 1000.1,991.8C1016.7,991.8 1032.2,1000 1041.6,1013.7C1050.6,1026.8 1060.6,1041.4 1070.6,1056.1L1074.2,1061.4C1091.9,1087.5 1113.4,1119.1 1141.3,1145.7L1141.3,962.8C1141.3,947.5 1134.4,933.5 1122.3,924.3C1110.2,915.1 1094.5,912.1 1080.2,916.1L1076.1,901.5C1094.9,896.2 1115.7,900.3 1131.5,912.3C1147.4,924.4 1156.6,942.8 1156.6,962.9L1156.4,1179Z" style="fill-rule:nonzero;"/>
                </g>
            </g>
        </g>
    </g>
</svg>
